# xmcd
#
# Track frame offsets:
#	150
#	9118
#	23637
#	34298
#	40922
#	50328
#	64096
#	76415
#	88565
#	105499
#	120939
#	129597
#	146412
#	163867
#	178426
#	192773
#	210670
#	224105
#	239522
#
# Disc length: 3385 seconds
#
# Revision: 1
# Processed by: cddbd v1.5.2PL0 Copyright (c) Steve Scherf et al.
# Submitted via: audiograbber 1.83.01
#
DISCID=070d3713
DTITLE=Ches Cherry - Tracing The Roots
DYEAR=2007
DGENRE=Traditional
TTITLE0=Tracing The Roots
TTITLE1=Wilderness Road
TTITLE2=Elizabethans and Hillbilly's
TTITLE3=Birth of the Blues
TTITLE4=Hobo Bums Fallen Preachers
TTITLE5=Dusty Road Ramblin'
TTITLE6=Working' on the Railroads
TTITLE7=Trains and Chains
TTITLE8=Hard Time Visiting Woody'd Grave
TTITLE9=Talkin' John Lee Hooker Blues
TTITLE10=Good Old Bluegrass Boys
TTITLE11=Cowboy Dreams of a Hillbilly Shakespeare
TTITLE12=Goin' Skiffle Crazy
TTITLE13=Cavern Blues
TTITLE14=Cajun Crosses The Mersey
TTITLE15=The Atlantic Years
TTITLE16=Nashville of the North
TTITLE17=The Roots They Are A' Changin'
TTITLE18=Rolloing Roots Revival
EXTD=Ches is a singer/songwriter from Wallasey near Liverpool in the UK.  He is
EXTD=very popular in local venues
EXTT0=
EXTT1=
EXTT2=
EXTT3=
EXTT4=
EXTT5=
EXTT6=
EXTT7=
EXTT8=
EXTT9=
EXTT10=
EXTT11=
EXTT12=
EXTT13=
EXTT14=
EXTT15=
EXTT16=
EXTT17=
EXTT18=
PLAYORDER=
